<svg xmlns="http://www.w3.org/2000/svg" viewBox="0 0 443.5 116.39" aria-label="Guesty Logo" role="img">
  <g>
    <g>
      <path fill="currentColor" d="M162.72,95.5c-21.27,0-35.32-14.05-35.32-35.52s14.74-35.52,36.11-35.52c9.76,0,18.64,3.61,25.37,10.54l-7.32,7.32c-4.59-4.59-11.51-7.32-18.15-7.32-14.54,0-24.59,10.05-24.59,24.98s9.37,24.98,23.91,24.98c6.83,0,12.39-1.76,17.27-5.56v-14.05h-19.12v-10.05h29.66v28.98c-7.61,7.61-16.59,11.22-27.81,11.22Z"></path>
      <path fill="currentColor" d="M218.56,95.11c-12.29,0-20.3-8.78-20.3-22.54v-26.64h10.93v25.96c0,8.49,4.29,13.37,11.32,13.37,8,0,13.37-5.85,13.37-13.95v-25.37h10.93v48.2h-9.76l-.1-6.25c-4.1,4.78-9.76,7.22-16.39,7.22Z"></path>
      <path fill="currentColor" d="M277.04,95.5c-15.91,0-26.15-10.05-26.15-25.47s10.05-25.08,24.98-25.08c16.98,0,26.35,11.12,24.79,29.18h-38.54c.88,7.03,6.73,11.51,15.22,11.51,5.46,0,10.93-1.95,13.86-4.98l6.64,6.44c-4.78,5.17-12.49,8.39-20.78,8.39ZM262.21,65.64h28c-.78-6.83-6.05-11.22-14.05-11.22s-12.59,4.1-13.95,11.22Z"></path>
      <path fill="currentColor" d="M326.53,95.31c-8.1,0-15.32-2.34-21.76-7.12l5.07-7.9c4.29,3.42,10.64,5.37,16.98,5.37s9.66-1.95,9.66-5.46-3.12-5.07-10.54-5.85c-12.59-1.17-19.71-6.44-19.71-14.83s8.39-14.73,20.88-14.73c7.32,0,13.76,1.85,19.12,5.56l-4.78,7.81c-4.29-2.73-8.88-4.1-13.86-4.1-6.93,0-10.64,1.95-10.64,5.46,0,3.12,2.83,4.78,9.86,5.56,14.25,1.56,20.49,6.15,20.49,15.22s-8.29,15.03-20.78,15.03Z"></path>
      <path fill="currentColor" d="M376.99,94.82c-9.95,0-15.81-5.76-15.81-17.27v-22.35h-9.07v-9.27h9.07v-12.59l10.83-1.17v13.76h13.86v9.27h-13.86v22.35c0,4.88,2.24,7.61,6.73,7.61,1.95,0,4.2-.59,6.05-1.46l3.03,8.78c-3.71,1.66-6.83,2.34-10.83,2.34Z"></path>
      <path fill="currentColor" d="M401.34,116.39l9.76-22.54-19.03-47.91h11.71l8.39,21.96,4.98,13.86,5.56-13.86,9.07-21.96h11.71l-30.25,70.45h-11.91Z"></path>
      <path fill="currentColor" fill-rule="evenodd" d="M47.73,1.61c3.21-2.17,7.43-2.14,10.61.07l42.28,29.47c2.51,1.75,4.01,4.62,4.01,7.68v64.99h-11.27v-62.11c0-1.19-.58-2.3-1.56-2.98L55.01,13.1c-1.23-.86-2.87-.87-4.11-.03L12.86,38.8c-1,.68-1.6,1.8-1.6,3.01v48.03c0,1.51,1.22,2.73,2.73,2.73h52.8c1.51,0,2.73-1.22,2.73-2.73v-36.39c0-1.23-.63-2.38-1.66-3.05l-12.49-8.08c-1.48-.95-3.37-.97-4.86-.05l-13.21,8.2c-1.07.66-1.72,1.83-1.72,3.09v25.06h-11.27v-28.14c0-3.24,1.67-6.25,4.43-7.96l19.29-11.97c3.08-1.91,6.98-1.87,10.03.09l18.45,11.93c2.67,1.73,4.28,4.69,4.28,7.87v44.03c0,5.17-4.19,9.37-9.37,9.37H9.37c-5.17,0-9.37-4.19-9.37-9.37v-55.59c0-3.11,1.54-6.02,4.12-7.76L47.73,1.61Z"></path>
    </g>
  </g>
</svg>

