<svg xmlns="http://www.w3.org/2000/svg" viewBox="0 0 100 100" aria-label="Guesty Logo">
  <path fill="#1976d2" fill-rule="evenodd" d="M41.1,1.4c2.76-1.87,6.39-1.84,9.12.06l36.4,25.36c2.16,1.51,3.45,3.98,3.45,6.61v55.96h-9.7v-53.46c0-1.02-.5-1.98-1.34-2.57L47.4,11.28c-1.06-.74-2.47-.75-3.54-.03L11.07,33.4c-.86.59-1.38,1.55-1.38,2.59v41.35c0,1.3,1.05,2.35,2.35,2.35h45.45c1.3,0,2.35-1.05,2.35-2.35v-31.33c0-1.06-.54-2.05-1.43-2.63l-10.75-6.96c-1.27-.82-2.9-.84-4.18-.04l-11.37,7.06c-.92.57-1.48,1.58-1.48,2.66v21.57h-9.7v-24.23c0-2.79,1.44-5.38,3.81-6.85l16.6-10.31c2.65-1.64,6.01-1.61,8.63.08l15.88,10.27c2.3,1.49,3.68,4.04,3.68,6.78v37.9c0,4.45-3.61,8.06-8.06,8.06H8.06c-4.45,0-8.06-3.61-8.06-8.06v-47.85c0-2.68,1.33-5.18,3.55-6.68L41.1,1.4Z"/>
</svg>

